<svg xmlns="http://www.w3.org/2000/svg" xmlns:xlink="http://www.w3.org/1999/xlink" width="20" height="15.437" viewBox="0 0 20 15.437">
  <defs>
    <clipPath id="clip-path">
      <rect id="Rectangle_714" data-name="Rectangle 714" width="20" height="15.437" transform="translate(0 0)" fill="#878787"/>
    </clipPath>
  </defs>
  <g id="Group_193" data-name="Group 193" transform="translate(0 0)">
    <g id="Group_192" data-name="Group 192" clip-path="url(#clip-path)">
      <path id="Path_179" data-name="Path 179" d="M18.185,6.808v-1.8H16.342a1.239,1.239,0,0,1,.026.18c0,.476,0,.953,0,1.429,0,.061-.011.121-.019.2H3.651V8.637H16.37c0,.3,0,.573,0,.849,0,.317-.017.632-.025.948H18.2V8.618H20V6.808Z" fill="#878787"/>
      <path id="Path_180" data-name="Path 180" d="M1.808,2c0-.076-.011-.152-.017-.228a2.15,2.15,0,0,1-.225.025c-.447,0-.895,0-1.343,0-.075,0-.149.008-.223.012V13.64c.305,0,.594,0,.884,0s.6.016.907.025c.006-.077.017-.152.017-.228q0-5.718,0-11.436" fill="#878787"/>
      <path id="Path_181" data-name="Path 181" d="M5.3,1.8a.848.848,0,0,0,.132-.021V0H1.795V1.771a.9.9,0,0,0,.16.028H5.3" fill="#878787"/>
      <path id="Path_182" data-name="Path 182" d="M1.8,1.771H1.79v0h0Z" fill="#878787"/>
      <path id="Path_183" data-name="Path 183" d="M1.8,13.666h0v.005H1.8Z" fill="#878787"/>
      <path id="Path_184" data-name="Path 184" d="M1.955,13.642a.884.884,0,0,0-.159.028v1.768H5.435V13.652c-.053,0-.094-.011-.135-.011q-1.673,0-3.345,0" fill="#878787"/>
      <path id="Path_185" data-name="Path 185" d="M14.557,1.367H12.745v1.8c.519,0,1.024,0,1.528,0a2.961,2.961,0,0,0,.31-.032c-.008-.09-.025-.18-.025-.27,0-.5,0-.991,0-1.5" fill="#878787"/>
      <path id="Path_186" data-name="Path 186" d="M14.583,3.135h0Z" fill="#878787"/>
      <path id="Path_187" data-name="Path 187" d="M16.337,5v.005h.006V5Z" fill="#878787"/>
      <path id="Path_188" data-name="Path 188" d="M14.583,3.136h0Z" fill="#878787"/>
      <path id="Path_189" data-name="Path 189" d="M16.37,3.169c-.534,0-1.038,0-1.541,0a2.065,2.065,0,0,1-.244-.032,2.854,2.854,0,0,0-.027.292c0,.514,0,1.03,0,1.574h1.78c.012-.28.027-.56.031-.84.006-.325,0-.649,0-.993" fill="#878787"/>
      <path id="Path_190" data-name="Path 190" d="M14.558,11.65c0,.217.018.434.027.65.372-.006.744-.016,1.117-.022.216,0,.433,0,.668,0,0-.5,0-.976,0-1.448,0-.13-.019-.26-.03-.39H14.557c0,.43,0,.819,0,1.209" fill="#878787"/>
      <path id="Path_191" data-name="Path 191" d="M16.339,10.44h0v-.006h-.006Z" fill="#878787"/>
      <path id="Path_192" data-name="Path 192" d="M14.581,12.3h0l0,0,0,0v0h0v0" fill="#878787"/>
      <path id="Path_193" data-name="Path 193" d="M12.747,12.278v1.8h1.81c0-.292,0-.567,0-.843,0-.309.016-.618.024-.927-.345-.008-.689-.02-1.035-.025-.266-.005-.532,0-.8,0" fill="#878787"/>
    </g>
  </g>
</svg>
