<svg id="Component_17_7" data-name="Component 17 – 7" xmlns="http://www.w3.org/2000/svg" width="39.999" height="39.999" viewBox="0 0 39.999 39.999">
  <path id="Path_60" data-name="Path 60" d="M15.367,28.166V25.835H17.7V23.5h2.335V21.166h2.334V18.835H20.033V16.5H17.7V14.166H15.367V11.835h4.666v2.331h2.334V16.5H24.7v2.335h2.335v2.331H24.7V23.5H22.367v2.335H20.033v2.331Z" transform="translate(0 -0.001)" fill="#ddd"/>
  <rect id="Rectangle_508" data-name="Rectangle 508" width="2.223" height="2.223" transform="translate(4.444 6.666)" fill="#ddd"/>
  <rect id="Rectangle_509" data-name="Rectangle 509" width="2.222" height="2.222" transform="translate(6.667 4.444)" fill="#ddd"/>
  <rect id="Rectangle_510" data-name="Rectangle 510" width="4.444" height="2.223" transform="translate(8.889 2.221)" fill="#ddd"/>
  <rect id="Rectangle_511" data-name="Rectangle 511" width="13.334" height="2.222" transform="translate(13.333)" fill="#ddd"/>
  <rect id="Rectangle_512" data-name="Rectangle 512" width="4.444" height="2.223" transform="translate(26.667 2.221)" fill="#ddd"/>
  <rect id="Rectangle_513" data-name="Rectangle 513" width="2.222" height="2.222" transform="translate(31.111 4.444)" fill="#ddd"/>
  <rect id="Rectangle_514" data-name="Rectangle 514" width="2.222" height="4.444" transform="translate(35.555 8.888)" fill="#ddd"/>
  <rect id="Rectangle_515" data-name="Rectangle 515" width="2.223" height="2.223" transform="translate(33.333 6.666)" fill="#ddd"/>
  <rect id="Rectangle_516" data-name="Rectangle 516" width="2.222" height="4.444" transform="translate(2.222 8.888)" fill="#ddd"/>
  <rect id="Rectangle_517" data-name="Rectangle 517" width="2.223" height="13.333" transform="translate(0 13.333)" fill="#ddd"/>
  <rect id="Rectangle_518" data-name="Rectangle 518" width="2.222" height="4.444" transform="translate(2.223 26.666)" fill="#ddd"/>
  <rect id="Rectangle_519" data-name="Rectangle 519" width="2.223" height="2.223" transform="translate(4.444 31.11)" fill="#ddd"/>
  <rect id="Rectangle_520" data-name="Rectangle 520" width="2.222" height="2.222" transform="translate(6.667 33.332)" fill="#ddd"/>
  <rect id="Rectangle_521" data-name="Rectangle 521" width="4.444" height="2.223" transform="translate(8.889 35.554)" fill="#ddd"/>
  <rect id="Rectangle_522" data-name="Rectangle 522" width="13.334" height="2.222" transform="translate(13.333 37.777)" fill="#ddd"/>
  <rect id="Rectangle_523" data-name="Rectangle 523" width="4.444" height="2.223" transform="translate(26.667 35.554)" fill="#ddd"/>
  <rect id="Rectangle_524" data-name="Rectangle 524" width="2.222" height="2.222" transform="translate(31.111 33.332)" fill="#ddd"/>
  <rect id="Rectangle_525" data-name="Rectangle 525" width="2.223" height="2.223" transform="translate(33.333 31.11)" fill="#ddd"/>
  <rect id="Rectangle_526" data-name="Rectangle 526" width="2.222" height="4.444" transform="translate(35.556 26.666)" fill="#ddd"/>
  <rect id="Rectangle_527" data-name="Rectangle 527" width="2.222" height="13.333" transform="translate(37.777 13.333)" fill="#ddd"/>
</svg>
