<svg id="Group_143" data-name="Group 143" xmlns="http://www.w3.org/2000/svg" width="50" height="50" viewBox="0 0 50 50">
  <rect id="Rectangle_351" data-name="Rectangle 351" width="2.977" height="2.977" transform="translate(32.44 32.44)" fill="#878787"/>
  <rect id="Rectangle_352" data-name="Rectangle 352" width="2.977" height="2.977" transform="translate(23.512 23.512)" fill="#878787"/>
  <rect id="Rectangle_353" data-name="Rectangle 353" width="2.976" height="2.977" transform="translate(20.536 26.488)" fill="#878787"/>
  <rect id="Rectangle_354" data-name="Rectangle 354" width="2.977" height="2.977" transform="translate(17.56 29.465)" fill="#878787"/>
  <rect id="Rectangle_355" data-name="Rectangle 355" width="2.976" height="2.977" transform="translate(14.583 32.44)" fill="#878787"/>
  <rect id="Rectangle_356" data-name="Rectangle 356" width="2.977" height="2.976" transform="translate(26.488 20.536)" fill="#878787"/>
  <rect id="Rectangle_357" data-name="Rectangle 357" width="2.977" height="2.977" transform="translate(29.465 17.56)" fill="#878787"/>
  <rect id="Rectangle_358" data-name="Rectangle 358" width="2.977" height="2.976" transform="translate(32.44 14.583)" fill="#878787"/>
  <rect id="Rectangle_359" data-name="Rectangle 359" width="2.977" height="2.977" transform="translate(26.488 26.488)" fill="#878787"/>
  <rect id="Rectangle_360" data-name="Rectangle 360" width="2.977" height="2.977" transform="translate(29.465 29.465)" fill="#878787"/>
  <rect id="Rectangle_361" data-name="Rectangle 361" width="2.976" height="2.976" transform="translate(20.536 20.536)" fill="#878787"/>
  <rect id="Rectangle_362" data-name="Rectangle 362" width="2.976" height="2.976" transform="translate(14.583 14.583)" fill="#878787"/>
  <rect id="Rectangle_363" data-name="Rectangle 363" width="2.977" height="2.977" transform="translate(17.56 17.56)" fill="#878787"/>
  <rect id="Rectangle_364" data-name="Rectangle 364" width="2.778" height="2.778" transform="translate(5.555 8.333)" fill="#878787"/>
  <rect id="Rectangle_365" data-name="Rectangle 365" width="2.778" height="2.778" transform="translate(8.333 5.556)" fill="#878787"/>
  <rect id="Rectangle_366" data-name="Rectangle 366" width="5.555" height="2.778" transform="translate(11.112 2.778)" fill="#878787"/>
  <rect id="Rectangle_367" data-name="Rectangle 367" width="16.667" height="2.778" transform="translate(16.666)" fill="#878787"/>
  <rect id="Rectangle_368" data-name="Rectangle 368" width="5.556" height="2.778" transform="translate(33.333 2.778)" fill="#878787"/>
  <rect id="Rectangle_369" data-name="Rectangle 369" width="2.778" height="2.778" transform="translate(38.889 5.556)" fill="#878787"/>
  <rect id="Rectangle_370" data-name="Rectangle 370" width="2.778" height="5.555" transform="translate(44.445 11.111)" fill="#878787"/>
  <rect id="Rectangle_371" data-name="Rectangle 371" width="2.777" height="2.778" transform="translate(41.667 8.333)" fill="#878787"/>
  <rect id="Rectangle_372" data-name="Rectangle 372" width="2.778" height="5.555" transform="translate(2.778 11.111)" fill="#878787"/>
  <rect id="Rectangle_373" data-name="Rectangle 373" width="2.777" height="16.666" transform="translate(0 16.667)" fill="#878787"/>
  <rect id="Rectangle_374" data-name="Rectangle 374" width="2.778" height="5.556" transform="translate(2.778 33.333)" fill="#878787"/>
  <rect id="Rectangle_375" data-name="Rectangle 375" width="2.778" height="2.778" transform="translate(5.556 38.889)" fill="#878787"/>
  <rect id="Rectangle_376" data-name="Rectangle 376" width="2.778" height="2.777" transform="translate(8.333 41.667)" fill="#878787"/>
  <rect id="Rectangle_377" data-name="Rectangle 377" width="5.555" height="2.778" transform="translate(11.111 44.445)" fill="#878787"/>
  <rect id="Rectangle_378" data-name="Rectangle 378" width="16.667" height="2.777" transform="translate(16.666 47.223)" fill="#878787"/>
  <rect id="Rectangle_379" data-name="Rectangle 379" width="5.556" height="2.778" transform="translate(33.333 44.445)" fill="#878787"/>
  <rect id="Rectangle_380" data-name="Rectangle 380" width="2.778" height="2.777" transform="translate(38.889 41.667)" fill="#878787"/>
  <rect id="Rectangle_381" data-name="Rectangle 381" width="2.777" height="2.778" transform="translate(41.667 38.889)" fill="#878787"/>
  <rect id="Rectangle_382" data-name="Rectangle 382" width="2.778" height="5.556" transform="translate(44.444 33.333)" fill="#878787"/>
  <rect id="Rectangle_383" data-name="Rectangle 383" width="2.777" height="16.666" transform="translate(47.223 16.667)" fill="#878787"/>
</svg>
