<svg id="Next_Button" data-name="Next Button" xmlns="http://www.w3.org/2000/svg" width="75" height="75" viewBox="0 0 75 75">
  <path id="Path_44" data-name="Path 44" d="M28.813,52.81V48.439h4.37V44.062h4.378V39.685h4.377V35.314H37.561V30.937H33.183V26.56h-4.37V22.189h8.748V26.56h4.377v4.377h4.37v4.377h4.378v4.371H46.308v4.377h-4.37v4.377H37.561V52.81Z" fill="#ddd"/>
  <rect id="Rectangle_246" data-name="Rectangle 246" width="4.167" height="4.167" transform="translate(8.333 12.5)" fill="#ddd"/>
  <rect id="Rectangle_247" data-name="Rectangle 247" width="4.167" height="4.167" transform="translate(12.5 8.333)" fill="#ddd"/>
  <rect id="Rectangle_248" data-name="Rectangle 248" width="8.333" height="4.167" transform="translate(16.667 4.167)" fill="#ddd"/>
  <rect id="Rectangle_249" data-name="Rectangle 249" width="25" height="4.166" transform="translate(25)" fill="#ddd"/>
  <rect id="Rectangle_250" data-name="Rectangle 250" width="8.333" height="4.167" transform="translate(50 4.167)" fill="#ddd"/>
  <rect id="Rectangle_251" data-name="Rectangle 251" width="4.167" height="4.167" transform="translate(58.333 8.333)" fill="#ddd"/>
  <rect id="Rectangle_252" data-name="Rectangle 252" width="4.166" height="8.333" transform="translate(66.667 16.667)" fill="#ddd"/>
  <rect id="Rectangle_253" data-name="Rectangle 253" width="4.167" height="4.167" transform="translate(62.5 12.5)" fill="#ddd"/>
  <rect id="Rectangle_254" data-name="Rectangle 254" width="4.166" height="8.333" transform="translate(4.167 16.667)" fill="#ddd"/>
  <rect id="Rectangle_255" data-name="Rectangle 255" width="4.167" height="25" transform="translate(0 25)" fill="#ddd"/>
  <rect id="Rectangle_256" data-name="Rectangle 256" width="4.166" height="8.333" transform="translate(4.167 50)" fill="#ddd"/>
  <rect id="Rectangle_257" data-name="Rectangle 257" width="4.167" height="4.167" transform="translate(8.333 58.333)" fill="#ddd"/>
  <rect id="Rectangle_258" data-name="Rectangle 258" width="4.167" height="4.167" transform="translate(12.5 62.5)" fill="#ddd"/>
  <rect id="Rectangle_259" data-name="Rectangle 259" width="8.333" height="4.167" transform="translate(16.667 66.666)" fill="#ddd"/>
  <rect id="Rectangle_260" data-name="Rectangle 260" width="25" height="4.167" transform="translate(25 70.833)" fill="#ddd"/>
  <rect id="Rectangle_261" data-name="Rectangle 261" width="8.333" height="4.167" transform="translate(50 66.666)" fill="#ddd"/>
  <rect id="Rectangle_262" data-name="Rectangle 262" width="4.167" height="4.167" transform="translate(58.333 62.5)" fill="#ddd"/>
  <rect id="Rectangle_263" data-name="Rectangle 263" width="4.167" height="4.167" transform="translate(62.5 58.333)" fill="#ddd"/>
  <rect id="Rectangle_264" data-name="Rectangle 264" width="4.166" height="8.333" transform="translate(66.667 50)" fill="#ddd"/>
  <rect id="Rectangle_265" data-name="Rectangle 265" width="4.167" height="25" transform="translate(70.833 25)" fill="#ddd"/>
</svg>
