<svg xmlns="http://www.w3.org/2000/svg" width="40" height="39.999" viewBox="0 0 40 39.999">
  <g id="Group_183" data-name="Group 183" transform="translate(0 -0.001)">
    <rect id="Rectangle_651" data-name="Rectangle 651" width="2.222" height="2.223" transform="translate(4.445 6.666)" fill="#f146c8"/>
    <rect id="Rectangle_652" data-name="Rectangle 652" width="2.222" height="2.223" transform="translate(6.667 4.443)" fill="#f146c8"/>
    <rect id="Rectangle_653" data-name="Rectangle 653" width="4.444" height="2.223" transform="translate(8.889 2.221)" fill="#f146c8"/>
    <rect id="Rectangle_654" data-name="Rectangle 654" width="13.334" height="2.221" transform="translate(13.333 0.001)" fill="#f146c8"/>
    <rect id="Rectangle_655" data-name="Rectangle 655" width="4.445" height="2.223" transform="translate(26.667 2.221)" fill="#f146c8"/>
    <rect id="Rectangle_656" data-name="Rectangle 656" width="2.222" height="2.223" transform="translate(31.112 4.443)" fill="#f146c8"/>
    <rect id="Rectangle_657" data-name="Rectangle 657" width="2.222" height="4.444" transform="translate(35.557 8.888)" fill="#f146c8"/>
    <rect id="Rectangle_658" data-name="Rectangle 658" width="2.222" height="2.223" transform="translate(33.334 6.666)" fill="#f146c8"/>
    <rect id="Rectangle_659" data-name="Rectangle 659" width="2.222" height="4.444" transform="translate(2.223 8.888)" fill="#f146c8"/>
    <rect id="Rectangle_660" data-name="Rectangle 660" width="2.222" height="13.333" transform="translate(0 13.333)" fill="#f146c8"/>
    <rect id="Rectangle_661" data-name="Rectangle 661" width="2.222" height="4.445" transform="translate(2.223 26.666)" fill="#f146c8"/>
    <rect id="Rectangle_662" data-name="Rectangle 662" width="2.222" height="2.223" transform="translate(4.445 31.111)" fill="#f146c8"/>
    <rect id="Rectangle_663" data-name="Rectangle 663" width="2.222" height="2.223" transform="translate(33.334 31.111)" fill="#f146c8"/>
    <rect id="Rectangle_664" data-name="Rectangle 664" width="2.222" height="4.445" transform="translate(35.557 26.666)" fill="#f146c8"/>
    <rect id="Rectangle_665" data-name="Rectangle 665" width="2.222" height="13.333" transform="translate(37.778 13.333)" fill="#f146c8"/>
    <path id="Path_74" data-name="Path 74" d="M26.354,13.774H24.943V12.363H23.532V10.952l-7.063,0v1.411H15.058v1.411H13.647V15.19H12.236v5.643h1.411v1.412h1.411v1.411h1.411v1.413l7.063-.006V23.65h1.411V22.24h1.411V20.828h1.411V15.184H26.354Z" fill="#f146c8"/>
    <path id="Path_75" data-name="Path 75" d="M23.53,26.479V27.9l-7.059.006V26.479H12.24V27.9H10.827v1.411H9.416v1.412H8v2.614H6.667v2.223H8.89v2.221h4.443V40H26.667V37.777h4.446V35.556h2.221V33.333H31.995V30.714H30.584V29.3h-1.41V27.892H27.761V26.479Z" fill="#f146c8"/>
  </g>
</svg>
