<svg id="Music_Icon" data-name="Music Icon" xmlns="http://www.w3.org/2000/svg" width="220" height="220" viewBox="0 0 220 220">
  <path id="Path_47" data-name="Path 47" d="M150.385,124.423v17.308h-5.77V147.5H110v-5.769h-5.769V95.577H92.693v-5.77H81.154V84.038H75.385V78.269h-5.77V72.5H110v51.923h11.539v-5.77h23.076v5.77Z" fill="#f146c8"/>
  <rect id="Rectangle_277" data-name="Rectangle 277" width="12.222" height="12.222" transform="translate(24.445 36.667)" fill="#f146c8"/>
  <rect id="Rectangle_278" data-name="Rectangle 278" width="12.222" height="12.223" transform="translate(36.667 24.444)" fill="#f146c8"/>
  <rect id="Rectangle_279" data-name="Rectangle 279" width="24.445" height="12.222" transform="translate(48.888 12.222)" fill="#f146c8"/>
  <rect id="Rectangle_280" data-name="Rectangle 280" width="73.333" height="12.222" transform="translate(73.334)" fill="#f146c8"/>
  <rect id="Rectangle_281" data-name="Rectangle 281" width="24.445" height="12.222" transform="translate(146.666 12.222)" fill="#f146c8"/>
  <rect id="Rectangle_282" data-name="Rectangle 282" width="12.222" height="12.223" transform="translate(171.111 24.444)" fill="#f146c8"/>
  <rect id="Rectangle_283" data-name="Rectangle 283" width="12.222" height="24.444" transform="translate(195.556 48.889)" fill="#f146c8"/>
  <rect id="Rectangle_284" data-name="Rectangle 284" width="12.222" height="12.222" transform="translate(183.334 36.667)" fill="#f146c8"/>
  <rect id="Rectangle_285" data-name="Rectangle 285" width="12.222" height="24.444" transform="translate(12.222 48.889)" fill="#f146c8"/>
  <rect id="Rectangle_286" data-name="Rectangle 286" width="12.222" height="73.334" transform="translate(0 73.333)" fill="#f146c8"/>
  <rect id="Rectangle_287" data-name="Rectangle 287" width="12.222" height="24.444" transform="translate(12.222 146.667)" fill="#f146c8"/>
  <rect id="Rectangle_288" data-name="Rectangle 288" width="12.222" height="12.222" transform="translate(24.444 171.111)" fill="#f146c8"/>
  <rect id="Rectangle_289" data-name="Rectangle 289" width="12.222" height="12.222" transform="translate(36.667 183.334)" fill="#f146c8"/>
  <rect id="Rectangle_290" data-name="Rectangle 290" width="24.445" height="12.222" transform="translate(48.889 195.556)" fill="#f146c8"/>
  <rect id="Rectangle_291" data-name="Rectangle 291" width="73.333" height="12.222" transform="translate(73.334 207.778)" fill="#f146c8"/>
  <rect id="Rectangle_292" data-name="Rectangle 292" width="24.445" height="12.222" transform="translate(146.667 195.556)" fill="#f146c8"/>
  <rect id="Rectangle_293" data-name="Rectangle 293" width="12.222" height="12.222" transform="translate(171.111 183.334)" fill="#f146c8"/>
  <rect id="Rectangle_294" data-name="Rectangle 294" width="12.222" height="12.222" transform="translate(183.333 171.111)" fill="#f146c8"/>
  <rect id="Rectangle_295" data-name="Rectangle 295" width="12.222" height="24.444" transform="translate(195.556 146.667)" fill="#f146c8"/>
  <rect id="Rectangle_296" data-name="Rectangle 296" width="12.222" height="73.334" transform="translate(207.778 73.333)" fill="#f146c8"/>
</svg>
