<svg xmlns="http://www.w3.org/2000/svg" width="1000" height="1100" viewBox="0 0 1000 1100">
  <g id="Group_78" data-name="Group 78" transform="translate(-460 -425)">
    <rect id="Rectangle_320" data-name="Rectangle 320" width="1000" height="1100" rx="30" transform="translate(460 425)" fill="#fff"/>
    <text id="使用兼容_Tronlink_的钱包扫描二维码" data-name="使用兼容 Tronlink 的钱包扫描二维码" transform="translate(960 1452)" fill="#706f6f" font-size="40" font-family="YuGothicUI-Regular, Yu Gothic UI"><tspan x="-320" y="0">使用兼容</tspan><tspan y="0" xml:space="preserve" font-family="SegoeUI, Segoe UI"> Tronlink </tspan><tspan y="0">的</tspan><tspan y="0" font-family="MicrosoftJhengHeiUIRegular, Microsoft JhengHei UI">钱</tspan><tspan y="0">包</tspan><tspan y="0" font-family="MicrosoftJhengHeiUIRegular, Microsoft JhengHei UI">扫</tspan><tspan y="0">描二</tspan><tspan y="0" font-family="MicrosoftJhengHeiUIRegular, Microsoft JhengHei UI">维码</tspan></text>
    <g id="Group_77" data-name="Group 77" transform="translate(535 500)">
      <rect id="Rectangle_322" data-name="Rectangle 322" width="40.47" height="40.471" transform="translate(364.284 0.001)"/>
      <rect id="Rectangle_323" data-name="Rectangle 323" width="40.484" height="40.471" transform="translate(485.713 0.001)"/>
      <path id="Path_48" data-name="Path 48" d="M40.481,40.481H242.858V242.856H40.481ZM0,283.337H283.337V0H0Z"/>
      <path id="Path_49" data-name="Path 49" d="M266.66,26.664h80.956V67.136h40.472v40.49H307.144V67.136H266.66Z" transform="translate(138.09 13.808)"/>
      <path id="Path_50" data-name="Path 50" d="M413.82,40.481H616.2V242.856H413.82ZM373.34,283.337H656.662V0H373.34Z" transform="translate(193.335)"/>
      <rect id="Rectangle_324" data-name="Rectangle 324" width="121.434" height="121.434" transform="translate(80.947 80.944)"/>
      <path id="Path_51" data-name="Path 51" d="M213.34,53.328h40.472v40.49h40.472V134.29H375.24v40.472h40.472V296.2H375.24v40.472h40.472v40.472H334.768v40.484H294.284V336.669h40.484V296.2H294.284v40.472H253.812v-80.95h40.472V174.762H253.812V134.29H213.34Z" transform="translate(110.478 27.616)"/>
      <rect id="Rectangle_325" data-name="Rectangle 325" width="121.434" height="121.434" transform="translate(647.607 80.944)"/>
      <rect id="Rectangle_326" data-name="Rectangle 326" width="40.484" height="40.484" transform="translate(323.818 242.856)"/>
      <path id="Path_52" data-name="Path 52" d="M80,213.34h80.944v40.472h40.472v40.472H241.9v40.484H201.416V375.24H241.9V334.768h40.478V375.24H322.85v40.472h80.956V375.24h40.472v80.95H403.806v40.484H282.378V415.712H80V375.24h40.472V334.768h40.472V294.284H120.475V253.812H80Z" transform="translate(41.428 110.478)"/>
      <rect id="Rectangle_327" data-name="Rectangle 327" width="80.944" height="40.484" transform="translate(242.856 323.818)"/>
      <path id="Path_53" data-name="Path 53" d="M508.568,213.34h80.962v40.472H549.059v80.956h-40.49V294.284H468.084v40.484h40.484V375.24h80.962V334.768h40.46V375.24h40.484v40.472H629.99V456.19h-40.46v40.484h80.944v80.944H629.99V537.134h-40.46v40.484H549.059V496.674h-40.49V456.19h40.49V415.712H427.624V456.19H346.662V334.768h80.962V294.284H387.152V253.812H508.568Z" transform="translate(179.52 110.478)"/>
      <path id="Path_54" data-name="Path 54" d="M0,240v40.472H40.472v80.956H80.944V320.956h80.962V280.472H80.944V240Z" transform="translate(0 124.284)"/>
      <rect id="Rectangle_328" data-name="Rectangle 328" width="40.484" height="80.944" transform="translate(323.818 364.284)"/>
      <rect id="Rectangle_329" data-name="Rectangle 329" width="40.484" height="80.946" transform="translate(809.516 364.283)"/>
      <rect id="Rectangle_330" data-name="Rectangle 330" width="40.472" height="40.484" transform="translate(0 485.713)"/>
      <path id="Path_55" data-name="Path 55" d="M40.481,413.826H242.858V616.188H40.481ZM0,656.667H283.337V373.33H0Z" transform="translate(0 193.329)"/>
      <rect id="Rectangle_331" data-name="Rectangle 331" width="40.484" height="40.472" transform="translate(485.713 607.141)"/>
      <rect id="Rectangle_332" data-name="Rectangle 332" width="121.434" height="121.434" transform="translate(80.947 647.607)"/>
      <path id="Path_56" data-name="Path 56" d="M213.34,426.66v80.958h40.472V629.05h40.474V588.566H375.24v-40.46H334.768V507.618H294.285V467.144H253.812V426.66Z" transform="translate(110.478 220.947)"/>
      <rect id="Rectangle_333" data-name="Rectangle 333" width="80.944" height="40.484" transform="translate(404.75 647.607)"/>
      <path id="Path_57" data-name="Path 57" d="M454.272,548.106h40.483v40.46H454.272Zm0-121.446v40.484h-40.46V426.66H373.339v80.958h40.474V629.05h80.942V588.566h40.49V507.618h-40.49V426.66Z" transform="translate(193.334 220.947)"/>
      <rect id="Rectangle_334" data-name="Rectangle 334" width="80.944" height="80.944" transform="translate(769.05 728.569)"/>
      <rect id="Rectangle_335" data-name="Rectangle 335" width="40.484" height="40.472" transform="translate(526.179 769.05)"/>
      <rect id="Rectangle_336" data-name="Rectangle 336" width="40.484" height="40.483" transform="translate(485.713 809.517)"/>
      <rect id="Rectangle_337" data-name="Rectangle 337" width="40.472" height="40.483" transform="translate(728.584 809.517)"/>
    </g>
  </g>
</svg>
