<svg id="Discord_Icon" data-name="Discord Icon" xmlns="http://www.w3.org/2000/svg" xmlns:xlink="http://www.w3.org/1999/xlink" width="50" height="50" viewBox="0 0 50 50">
  <defs>
    <clipPath id="clip-path">
      <rect id="Rectangle_146" data-name="Rectangle 146" width="50" height="50" fill="none"/>
    </clipPath>
  </defs>
  <g id="Group_41" data-name="Group 41" clip-path="url(#clip-path)">
    <path id="Path_34" data-name="Path 34" d="M34.472,16.311a22.493,22.493,0,0,0-5.564-1.726.083.083,0,0,0-.088.042,15.8,15.8,0,0,0-.694,1.423,20.838,20.838,0,0,0-6.248,0,14.456,14.456,0,0,0-.7-1.423.089.089,0,0,0-.089-.042,22.44,22.44,0,0,0-5.563,1.726.071.071,0,0,0-.037.031A23.077,23.077,0,0,0,11.446,31.9a.1.1,0,0,0,.037.064,22.662,22.662,0,0,0,6.825,3.45.089.089,0,0,0,.1-.031,16.244,16.244,0,0,0,1.4-2.272.087.087,0,0,0-.048-.12,15,15,0,0,1-2.132-1.016.088.088,0,0,1-.008-.145c.143-.108.286-.22.423-.332a.083.083,0,0,1,.088-.012,16.168,16.168,0,0,0,13.737,0,.081.081,0,0,1,.088.011c.138.112.281.225.425.333a.087.087,0,0,1-.008.145,13.983,13.983,0,0,1-2.132,1.015.085.085,0,0,0-.046.121,18.179,18.179,0,0,0,1.394,2.27.086.086,0,0,0,.1.033,22.6,22.6,0,0,0,6.836-3.45.093.093,0,0,0,.036-.063,22.924,22.924,0,0,0-4.041-15.557.07.07,0,0,0-.036-.032m-14,12.483a2.627,2.627,0,0,1-2.457-2.755,2.614,2.614,0,0,1,2.457-2.755,2.6,2.6,0,0,1,2.456,2.755,2.612,2.612,0,0,1-2.456,2.755m9.082,0a2.627,2.627,0,0,1-2.457-2.755,2.473,2.473,0,1,1,4.913,0,2.605,2.605,0,0,1-2.456,2.755" fill="#878787"/>
    <rect id="Rectangle_126" data-name="Rectangle 126" width="2.777" height="2.778" transform="translate(5.556 8.333)" fill="#878787"/>
    <rect id="Rectangle_127" data-name="Rectangle 127" width="2.778" height="2.778" transform="translate(8.333 5.555)" fill="#878787"/>
    <rect id="Rectangle_128" data-name="Rectangle 128" width="5.556" height="2.778" transform="translate(11.111 2.778)" fill="#878787"/>
    <rect id="Rectangle_129" data-name="Rectangle 129" width="16.666" height="2.778" transform="translate(16.667)" fill="#878787"/>
    <rect id="Rectangle_130" data-name="Rectangle 130" width="5.556" height="2.778" transform="translate(33.333 2.778)" fill="#878787"/>
    <rect id="Rectangle_131" data-name="Rectangle 131" width="2.778" height="2.778" transform="translate(38.889 5.555)" fill="#878787"/>
    <rect id="Rectangle_132" data-name="Rectangle 132" width="2.778" height="5.556" transform="translate(44.445 11.111)" fill="#878787"/>
    <rect id="Rectangle_133" data-name="Rectangle 133" width="2.777" height="2.778" transform="translate(41.667 8.333)" fill="#878787"/>
    <rect id="Rectangle_134" data-name="Rectangle 134" width="2.778" height="5.556" transform="translate(2.778 11.111)" fill="#878787"/>
    <rect id="Rectangle_135" data-name="Rectangle 135" width="2.777" height="16.667" transform="translate(0 16.666)" fill="#878787"/>
    <rect id="Rectangle_136" data-name="Rectangle 136" width="2.778" height="5.556" transform="translate(2.777 33.333)" fill="#878787"/>
    <rect id="Rectangle_137" data-name="Rectangle 137" width="2.777" height="2.778" transform="translate(5.556 38.889)" fill="#878787"/>
    <rect id="Rectangle_138" data-name="Rectangle 138" width="2.778" height="2.778" transform="translate(8.333 41.667)" fill="#878787"/>
    <rect id="Rectangle_139" data-name="Rectangle 139" width="5.556" height="2.778" transform="translate(11.111 44.444)" fill="#878787"/>
    <rect id="Rectangle_140" data-name="Rectangle 140" width="16.666" height="2.777" transform="translate(16.667 47.223)" fill="#878787"/>
    <rect id="Rectangle_141" data-name="Rectangle 141" width="5.556" height="2.778" transform="translate(33.333 44.444)" fill="#878787"/>
    <rect id="Rectangle_142" data-name="Rectangle 142" width="2.778" height="2.778" transform="translate(38.889 41.667)" fill="#878787"/>
    <rect id="Rectangle_143" data-name="Rectangle 143" width="2.777" height="2.778" transform="translate(41.667 38.889)" fill="#878787"/>
    <rect id="Rectangle_144" data-name="Rectangle 144" width="2.778" height="5.556" transform="translate(44.444 33.333)" fill="#878787"/>
    <rect id="Rectangle_145" data-name="Rectangle 145" width="2.777" height="16.667" transform="translate(47.223 16.666)" fill="#878787"/>
  </g>
</svg>
