<svg id="Instagram_Icon" data-name="Instagram Icon" xmlns="http://www.w3.org/2000/svg" xmlns:xlink="http://www.w3.org/1999/xlink" width="50" height="50" viewBox="0 0 50 50">
  <defs>
    <clipPath id="clip-path">
      <rect id="Rectangle_188" data-name="Rectangle 188" width="50" height="50" fill="none"/>
    </clipPath>
  </defs>
  <rect id="Rectangle_168" data-name="Rectangle 168" width="2.777" height="2.778" transform="translate(5.556 8.333)" fill="#878787"/>
  <rect id="Rectangle_169" data-name="Rectangle 169" width="2.778" height="2.778" transform="translate(8.333 5.555)" fill="#878787"/>
  <rect id="Rectangle_170" data-name="Rectangle 170" width="5.556" height="2.778" transform="translate(11.111 2.778)" fill="#878787"/>
  <rect id="Rectangle_171" data-name="Rectangle 171" width="16.666" height="2.778" transform="translate(16.667)" fill="#878787"/>
  <rect id="Rectangle_172" data-name="Rectangle 172" width="5.556" height="2.778" transform="translate(33.333 2.778)" fill="#878787"/>
  <rect id="Rectangle_173" data-name="Rectangle 173" width="2.778" height="2.778" transform="translate(38.889 5.555)" fill="#878787"/>
  <rect id="Rectangle_174" data-name="Rectangle 174" width="2.778" height="5.556" transform="translate(44.445 11.111)" fill="#878787"/>
  <rect id="Rectangle_175" data-name="Rectangle 175" width="2.777" height="2.778" transform="translate(41.667 8.333)" fill="#878787"/>
  <rect id="Rectangle_176" data-name="Rectangle 176" width="2.778" height="5.556" transform="translate(2.778 11.111)" fill="#878787"/>
  <rect id="Rectangle_177" data-name="Rectangle 177" width="2.777" height="16.666" transform="translate(0 16.667)" fill="#878787"/>
  <rect id="Rectangle_178" data-name="Rectangle 178" width="2.778" height="5.556" transform="translate(2.777 33.333)" fill="#878787"/>
  <rect id="Rectangle_179" data-name="Rectangle 179" width="2.777" height="2.778" transform="translate(5.556 38.889)" fill="#878787"/>
  <rect id="Rectangle_180" data-name="Rectangle 180" width="2.778" height="2.778" transform="translate(8.333 41.667)" fill="#878787"/>
  <rect id="Rectangle_181" data-name="Rectangle 181" width="5.556" height="2.778" transform="translate(11.111 44.444)" fill="#878787"/>
  <rect id="Rectangle_182" data-name="Rectangle 182" width="16.666" height="2.777" transform="translate(16.667 47.223)" fill="#878787"/>
  <rect id="Rectangle_183" data-name="Rectangle 183" width="5.556" height="2.778" transform="translate(33.333 44.444)" fill="#878787"/>
  <rect id="Rectangle_184" data-name="Rectangle 184" width="2.778" height="2.778" transform="translate(38.889 41.667)" fill="#878787"/>
  <rect id="Rectangle_185" data-name="Rectangle 185" width="2.777" height="2.778" transform="translate(41.667 38.889)" fill="#878787"/>
  <rect id="Rectangle_186" data-name="Rectangle 186" width="2.778" height="5.556" transform="translate(44.444 33.333)" fill="#878787"/>
  <rect id="Rectangle_187" data-name="Rectangle 187" width="2.777" height="16.666" transform="translate(47.223 16.667)" fill="#878787"/>
  <g id="Group_46" data-name="Group 46">
    <g id="Group_45" data-name="Group 45" clip-path="url(#clip-path)">
      <path id="Path_36" data-name="Path 36" d="M34.42,21.1a6.935,6.935,0,0,0-.44-2.3,4.845,4.845,0,0,0-2.772-2.771,6.923,6.923,0,0,0-2.3-.441C27.9,15.541,27.575,15.53,25,15.53s-2.894.011-3.9.055a6.933,6.933,0,0,0-2.3.441,4.611,4.611,0,0,0-1.68,1.1A4.7,4.7,0,0,0,16.031,18.8a6.96,6.96,0,0,0-.439,2.3c-.049,1.014-.06,1.336-.06,3.907s.011,2.894.056,3.9a6.921,6.921,0,0,0,.44,2.3A4.855,4.855,0,0,0,18.8,33.974a6.958,6.958,0,0,0,2.3.44c1.01.044,1.332.055,3.9.055s2.894-.011,3.9-.055a6.936,6.936,0,0,0,2.3-.44A4.845,4.845,0,0,0,33.972,31.2a6.938,6.938,0,0,0,.44-2.3c.045-1.01.056-1.332.056-3.9s0-2.893-.048-3.9m-1.706,7.733a5.185,5.185,0,0,1-.325,1.757,3.14,3.14,0,0,1-1.8,1.8,5.209,5.209,0,0,1-1.758.326c-1,.044-1.3.056-3.825.056s-2.831-.012-3.826-.056a5.186,5.186,0,0,1-1.758-.326,2.909,2.909,0,0,1-1.087-.706,2.947,2.947,0,0,1-.707-1.088,5.185,5.185,0,0,1-.325-1.758c-.045-1-.056-1.3-.056-3.825s.011-2.83.056-3.826a5.16,5.16,0,0,1,.325-1.757,2.876,2.876,0,0,1,.711-1.088,2.956,2.956,0,0,1,1.087-.707,5.242,5.242,0,0,1,1.758-.325c1-.044,1.3-.056,3.825-.056s2.831.012,3.826.056a5.205,5.205,0,0,1,1.757.325,2.919,2.919,0,0,1,1.088.707,2.951,2.951,0,0,1,.707,1.088,5.209,5.209,0,0,1,.325,1.757c.045,1,.056,1.3.056,3.826s-.011,2.823-.056,3.822" fill="#878787"/>
      <path id="Path_37" data-name="Path 37" d="M25,20.136A4.866,4.866,0,1,0,29.869,25,4.866,4.866,0,0,0,25,20.136m0,8.021A3.155,3.155,0,1,1,28.159,25,3.156,3.156,0,0,1,25,28.157" fill="#878787"/>
      <path id="Path_38" data-name="Path 38" d="M31.2,19.944a1.136,1.136,0,1,1-1.136-1.136A1.137,1.137,0,0,1,31.2,19.944" fill="#878787"/>
    </g>
  </g>
</svg>
