<svg id="Group_48" data-name="Group 48" xmlns="http://www.w3.org/2000/svg" width="49.999" height="50" viewBox="0 0 49.999 50">
  <rect id="Rectangle_253" data-name="Rectangle 253" width="20" height="3.078" transform="translate(15 16.598)" fill="#878787"/>
  <rect id="Rectangle_254" data-name="Rectangle 254" width="20" height="3.078" transform="translate(15 23.461)" fill="#878787"/>
  <rect id="Rectangle_255" data-name="Rectangle 255" width="20" height="3.078" transform="translate(15 30.324)" fill="#878787"/>
  <rect id="Rectangle_256" data-name="Rectangle 256" width="2.778" height="2.778" transform="translate(5.556 8.333)" fill="#878787"/>
  <rect id="Rectangle_257" data-name="Rectangle 257" width="2.777" height="2.778" transform="translate(8.334 5.555)" fill="#878787"/>
  <rect id="Rectangle_258" data-name="Rectangle 258" width="5.556" height="2.778" transform="translate(11.111 2.778)" fill="#878787"/>
  <rect id="Rectangle_259" data-name="Rectangle 259" width="16.667" height="2.778" transform="translate(16.667)" fill="#878787"/>
  <rect id="Rectangle_260" data-name="Rectangle 260" width="5.555" height="2.778" transform="translate(33.333 2.778)" fill="#878787"/>
  <rect id="Rectangle_261" data-name="Rectangle 261" width="2.778" height="2.778" transform="translate(38.889 5.555)" fill="#878787"/>
  <rect id="Rectangle_262" data-name="Rectangle 262" width="2.778" height="5.556" transform="translate(44.444 11.111)" fill="#878787"/>
  <rect id="Rectangle_263" data-name="Rectangle 263" width="2.777" height="2.778" transform="translate(41.667 8.333)" fill="#878787"/>
  <rect id="Rectangle_264" data-name="Rectangle 264" width="2.777" height="5.556" transform="translate(2.778 11.111)" fill="#878787"/>
  <rect id="Rectangle_265" data-name="Rectangle 265" width="2.778" height="16.666" transform="translate(0 16.667)" fill="#878787"/>
  <rect id="Rectangle_266" data-name="Rectangle 266" width="2.777" height="5.556" transform="translate(2.778 33.333)" fill="#878787"/>
  <rect id="Rectangle_267" data-name="Rectangle 267" width="2.778" height="2.778" transform="translate(5.555 38.889)" fill="#878787"/>
  <rect id="Rectangle_268" data-name="Rectangle 268" width="2.777" height="2.778" transform="translate(8.334 41.667)" fill="#878787"/>
  <rect id="Rectangle_269" data-name="Rectangle 269" width="5.556" height="2.778" transform="translate(11.111 44.444)" fill="#878787"/>
  <rect id="Rectangle_270" data-name="Rectangle 270" width="16.667" height="2.777" transform="translate(16.667 47.223)" fill="#878787"/>
  <rect id="Rectangle_271" data-name="Rectangle 271" width="5.555" height="2.778" transform="translate(33.334 44.444)" fill="#878787"/>
  <rect id="Rectangle_272" data-name="Rectangle 272" width="2.778" height="2.778" transform="translate(38.888 41.667)" fill="#878787"/>
  <rect id="Rectangle_273" data-name="Rectangle 273" width="2.777" height="2.778" transform="translate(41.667 38.889)" fill="#878787"/>
  <rect id="Rectangle_274" data-name="Rectangle 274" width="2.778" height="5.556" transform="translate(44.444 33.333)" fill="#878787"/>
  <rect id="Rectangle_275" data-name="Rectangle 275" width="2.777" height="16.666" transform="translate(47.222 16.667)" fill="#878787"/>
</svg>
