<svg xmlns="http://www.w3.org/2000/svg" width="45" height="45" viewBox="0 0 45 45">
  <g id="Tick_Icon_Grey" data-name="Tick Icon_Grey" transform="translate(-1646 -2541)">
    <rect id="Rectangle_387" data-name="Rectangle 387" width="2.5" height="2.5" transform="translate(1651 2548.5)" fill="#706f6f"/>
    <rect id="Rectangle_388" data-name="Rectangle 388" width="2.5" height="2.5" transform="translate(1653.5 2546)" fill="#706f6f"/>
    <rect id="Rectangle_389" data-name="Rectangle 389" width="5" height="2.5" transform="translate(1656 2543.5)" fill="#706f6f"/>
    <rect id="Rectangle_390" data-name="Rectangle 390" width="14.999" height="2.5" transform="translate(1661 2541)" fill="#706f6f"/>
    <rect id="Rectangle_391" data-name="Rectangle 391" width="5" height="2.5" transform="translate(1676 2543.5)" fill="#706f6f"/>
    <rect id="Rectangle_392" data-name="Rectangle 392" width="2.5" height="2.5" transform="translate(1681 2546)" fill="#706f6f"/>
    <rect id="Rectangle_393" data-name="Rectangle 393" width="2.5" height="5" transform="translate(1686 2551)" fill="#706f6f"/>
    <rect id="Rectangle_394" data-name="Rectangle 394" width="2.5" height="2.5" transform="translate(1683.5 2548.5)" fill="#706f6f"/>
    <rect id="Rectangle_395" data-name="Rectangle 395" width="2.5" height="5" transform="translate(1648.5 2551)" fill="#706f6f"/>
    <rect id="Rectangle_396" data-name="Rectangle 396" width="2.5" height="14.999" transform="translate(1646 2556.001)" fill="#706f6f"/>
    <rect id="Rectangle_397" data-name="Rectangle 397" width="2.5" height="5" transform="translate(1648.5 2571)" fill="#706f6f"/>
    <rect id="Rectangle_398" data-name="Rectangle 398" width="2.5" height="2.5" transform="translate(1651 2576)" fill="#706f6f"/>
    <rect id="Rectangle_399" data-name="Rectangle 399" width="2.5" height="2.5" transform="translate(1653.5 2578.5)" fill="#706f6f"/>
    <rect id="Rectangle_400" data-name="Rectangle 400" width="5" height="2.5" transform="translate(1656 2581)" fill="#706f6f"/>
    <rect id="Rectangle_401" data-name="Rectangle 401" width="14.999" height="2.5" transform="translate(1661 2583.5)" fill="#706f6f"/>
    <rect id="Rectangle_402" data-name="Rectangle 402" width="5" height="2.5" transform="translate(1676 2581)" fill="#706f6f"/>
    <rect id="Rectangle_403" data-name="Rectangle 403" width="2.5" height="2.5" transform="translate(1681 2578.5)" fill="#706f6f"/>
    <rect id="Rectangle_404" data-name="Rectangle 404" width="2.5" height="2.5" transform="translate(1683.5 2576)" fill="#706f6f"/>
    <rect id="Rectangle_405" data-name="Rectangle 405" width="2.5" height="5" transform="translate(1686 2571)" fill="#706f6f"/>
    <rect id="Rectangle_406" data-name="Rectangle 406" width="2.5" height="14.999" transform="translate(1688.5 2556.001)" fill="#706f6f"/>
  </g>
</svg>
