<svg xmlns="http://www.w3.org/2000/svg" width="60.001" height="60.001" viewBox="0 0 60.001 60.001">
  <g id="Tick_Icon" data-name="Tick Icon" transform="translate(0 0.001)">
    <rect id="Rectangle_200" data-name="Rectangle 200" width="3.333" height="3.333" transform="translate(6.667 10)" fill="#fff"/>
    <rect id="Rectangle_201" data-name="Rectangle 201" width="3.333" height="3.333" transform="translate(10 6.667)" fill="#fff"/>
    <rect id="Rectangle_202" data-name="Rectangle 202" width="6.667" height="3.334" transform="translate(13.333 3.333)" fill="#fff"/>
    <rect id="Rectangle_203" data-name="Rectangle 203" width="20" height="3.334" transform="translate(20 -0.001)" fill="#fff"/>
    <rect id="Rectangle_204" data-name="Rectangle 204" width="6.667" height="3.334" transform="translate(40 3.333)" fill="#fff"/>
    <rect id="Rectangle_205" data-name="Rectangle 205" width="3.333" height="3.333" transform="translate(46.667 6.667)" fill="#fff"/>
    <rect id="Rectangle_206" data-name="Rectangle 206" width="3.333" height="6.667" transform="translate(53.334 13.333)" fill="#fff"/>
    <rect id="Rectangle_207" data-name="Rectangle 207" width="3.333" height="3.333" transform="translate(50 10)" fill="#fff"/>
    <rect id="Rectangle_208" data-name="Rectangle 208" width="3.333" height="6.667" transform="translate(3.334 13.333)" fill="#fff"/>
    <rect id="Rectangle_209" data-name="Rectangle 209" width="3.334" height="20" transform="translate(0 20)" fill="#fff"/>
    <rect id="Rectangle_210" data-name="Rectangle 210" width="3.333" height="6.667" transform="translate(3.333 40)" fill="#fff"/>
    <rect id="Rectangle_211" data-name="Rectangle 211" width="3.333" height="3.333" transform="translate(6.667 46.667)" fill="#fff"/>
    <rect id="Rectangle_212" data-name="Rectangle 212" width="3.333" height="3.333" transform="translate(10 50)" fill="#fff"/>
    <rect id="Rectangle_213" data-name="Rectangle 213" width="6.667" height="3.334" transform="translate(13.333 53.333)" fill="#fff"/>
    <rect id="Rectangle_214" data-name="Rectangle 214" width="20" height="3.333" transform="translate(20 56.667)" fill="#fff"/>
    <rect id="Rectangle_215" data-name="Rectangle 215" width="6.667" height="3.334" transform="translate(40 53.333)" fill="#fff"/>
    <rect id="Rectangle_216" data-name="Rectangle 216" width="3.333" height="3.333" transform="translate(46.667 50)" fill="#fff"/>
    <rect id="Rectangle_217" data-name="Rectangle 217" width="3.333" height="3.333" transform="translate(50 46.667)" fill="#fff"/>
    <rect id="Rectangle_218" data-name="Rectangle 218" width="3.333" height="6.667" transform="translate(53.333 40)" fill="#fff"/>
    <rect id="Rectangle_219" data-name="Rectangle 219" width="3.334" height="20" transform="translate(56.667 20)" fill="#fff"/>
    <rect id="Rectangle_220" data-name="Rectangle 220" width="4.545" height="4.546" transform="translate(18.636 32.273)" fill="#fff"/>
    <rect id="Rectangle_221" data-name="Rectangle 221" width="4.545" height="4.545" transform="translate(14.091 27.728)" fill="#fff"/>
    <rect id="Rectangle_222" data-name="Rectangle 222" width="4.545" height="4.546" transform="translate(36.818 23.182)" fill="#fff"/>
    <rect id="Rectangle_223" data-name="Rectangle 223" width="4.545" height="4.545" transform="translate(32.273 27.728)" fill="#fff"/>
    <rect id="Rectangle_224" data-name="Rectangle 224" width="4.546" height="4.546" transform="translate(27.727 32.273)" fill="#fff"/>
    <rect id="Rectangle_225" data-name="Rectangle 225" width="4.545" height="4.545" transform="translate(23.182 36.818)" fill="#fff"/>
    <rect id="Rectangle_226" data-name="Rectangle 226" width="4.545" height="4.545" transform="translate(41.364 18.637)" fill="#fff"/>
  </g>
</svg>
