<svg xmlns="http://www.w3.org/2000/svg" xmlns:xlink="http://www.w3.org/1999/xlink" width="50" height="50" viewBox="0 0 50 50">
  <defs>
    <clipPath id="clip-path">
      <rect id="Rectangle_125" data-name="Rectangle 125" width="50" height="50" fill="#878787"/>
    </clipPath>
  </defs>
  <g id="Twitter_Icon" data-name="Twitter Icon" transform="translate(-1446 -75)">
    <rect id="Rectangle_105" data-name="Rectangle 105" width="2.777" height="2.778" transform="translate(1451.556 83.333)" fill="#878787"/>
    <rect id="Rectangle_106" data-name="Rectangle 106" width="2.778" height="2.778" transform="translate(1454.333 80.555)" fill="#878787"/>
    <rect id="Rectangle_107" data-name="Rectangle 107" width="5.556" height="2.778" transform="translate(1457.111 77.778)" fill="#878787"/>
    <rect id="Rectangle_108" data-name="Rectangle 108" width="16.666" height="2.778" transform="translate(1462.667 75)" fill="#878787"/>
    <rect id="Rectangle_109" data-name="Rectangle 109" width="5.556" height="2.778" transform="translate(1479.333 77.778)" fill="#878787"/>
    <rect id="Rectangle_110" data-name="Rectangle 110" width="2.778" height="2.778" transform="translate(1484.889 80.555)" fill="#878787"/>
    <rect id="Rectangle_111" data-name="Rectangle 111" width="2.778" height="5.556" transform="translate(1490.445 86.111)" fill="#878787"/>
    <rect id="Rectangle_112" data-name="Rectangle 112" width="2.777" height="2.778" transform="translate(1487.667 83.333)" fill="#878787"/>
    <rect id="Rectangle_113" data-name="Rectangle 113" width="2.778" height="5.556" transform="translate(1448.778 86.111)" fill="#878787"/>
    <rect id="Rectangle_114" data-name="Rectangle 114" width="2.777" height="16.666" transform="translate(1446 91.667)" fill="#878787"/>
    <rect id="Rectangle_115" data-name="Rectangle 115" width="2.778" height="5.556" transform="translate(1448.777 108.333)" fill="#878787"/>
    <rect id="Rectangle_116" data-name="Rectangle 116" width="2.777" height="2.778" transform="translate(1451.556 113.889)" fill="#878787"/>
    <rect id="Rectangle_117" data-name="Rectangle 117" width="2.778" height="2.778" transform="translate(1454.333 116.667)" fill="#878787"/>
    <rect id="Rectangle_118" data-name="Rectangle 118" width="5.556" height="2.778" transform="translate(1457.111 119.444)" fill="#878787"/>
    <rect id="Rectangle_119" data-name="Rectangle 119" width="16.666" height="2.777" transform="translate(1462.667 122.223)" fill="#878787"/>
    <rect id="Rectangle_120" data-name="Rectangle 120" width="5.556" height="2.778" transform="translate(1479.333 119.444)" fill="#878787"/>
    <rect id="Rectangle_121" data-name="Rectangle 121" width="2.778" height="2.778" transform="translate(1484.889 116.667)" fill="#878787"/>
    <rect id="Rectangle_122" data-name="Rectangle 122" width="2.777" height="2.778" transform="translate(1487.667 113.889)" fill="#878787"/>
    <rect id="Rectangle_123" data-name="Rectangle 123" width="2.778" height="5.556" transform="translate(1490.444 108.333)" fill="#878787"/>
    <rect id="Rectangle_124" data-name="Rectangle 124" width="2.777" height="16.666" transform="translate(1493.223 91.667)" fill="#878787"/>
    <g id="Group_40" data-name="Group 40" transform="translate(1446 75)">
      <g id="Group_39" data-name="Group 39" clip-path="url(#clip-path)">
        <path id="Path_33" data-name="Path 33" d="M36.655,17.772a10,10,0,0,1-2.754.755A4.753,4.753,0,0,0,36,15.886a9.6,9.6,0,0,1-3.031,1.157,4.778,4.778,0,0,0-8.266,3.267,4.9,4.9,0,0,0,.111,1.09,13.523,13.523,0,0,1-9.85-5,4.778,4.778,0,0,0,1.468,6.387,4.727,4.727,0,0,1-2.159-.588v.052a4.8,4.8,0,0,0,3.829,4.7,4.785,4.785,0,0,1-1.253.157,4.235,4.235,0,0,1-.905-.082,4.823,4.823,0,0,0,4.466,3.329,9.6,9.6,0,0,1-5.926,2.039,8.97,8.97,0,0,1-1.144-.066A13.6,13.6,0,0,0,34.277,20.871c0-.211-.007-.415-.018-.618a9.52,9.52,0,0,0,2.4-2.481" fill="#878787"/>
      </g>
    </g>
  </g>
</svg>
