<svg xmlns="http://www.w3.org/2000/svg" width="50" height="49.999" viewBox="0 0 50 49.999">
  <g id="Group_47" data-name="Group 47" transform="translate(0 -0.001)">
    <rect id="Rectangle_237" data-name="Rectangle 237" width="2.777" height="2.778" transform="translate(5.556 8.333)" fill="#878787"/>
    <rect id="Rectangle_238" data-name="Rectangle 238" width="2.778" height="2.778" transform="translate(8.334 5.555)" fill="#878787"/>
    <rect id="Rectangle_239" data-name="Rectangle 239" width="5.555" height="2.778" transform="translate(11.111 2.778)" fill="#878787"/>
    <rect id="Rectangle_240" data-name="Rectangle 240" width="16.667" height="2.777" transform="translate(16.666 0.001)" fill="#878787"/>
    <rect id="Rectangle_241" data-name="Rectangle 241" width="5.556" height="2.778" transform="translate(33.333 2.778)" fill="#878787"/>
    <rect id="Rectangle_242" data-name="Rectangle 242" width="2.777" height="2.778" transform="translate(38.889 5.555)" fill="#878787"/>
    <rect id="Rectangle_243" data-name="Rectangle 243" width="2.777" height="5.556" transform="translate(44.445 11.111)" fill="#878787"/>
    <rect id="Rectangle_244" data-name="Rectangle 244" width="2.778" height="2.778" transform="translate(41.667 8.333)" fill="#878787"/>
    <rect id="Rectangle_245" data-name="Rectangle 245" width="2.778" height="5.556" transform="translate(2.778 11.111)" fill="#878787"/>
    <rect id="Rectangle_246" data-name="Rectangle 246" width="2.777" height="16.666" transform="translate(0 16.667)" fill="#878787"/>
    <rect id="Rectangle_247" data-name="Rectangle 247" width="2.778" height="5.556" transform="translate(2.778 33.333)" fill="#878787"/>
    <rect id="Rectangle_248" data-name="Rectangle 248" width="2.777" height="2.778" transform="translate(5.556 38.889)" fill="#878787"/>
    <rect id="Rectangle_249" data-name="Rectangle 249" width="2.778" height="2.778" transform="translate(41.666 38.889)" fill="#878787"/>
    <rect id="Rectangle_250" data-name="Rectangle 250" width="2.777" height="5.556" transform="translate(44.445 33.333)" fill="#878787"/>
    <rect id="Rectangle_251" data-name="Rectangle 251" width="2.778" height="16.666" transform="translate(47.222 16.667)" fill="#878787"/>
    <path id="Path_43" data-name="Path 43" d="M32.942,17.218H31.178V15.454H29.415V13.691l-8.829.006v1.764H18.822v1.763H17.059v1.764H15.295v7.054h1.764v1.764h1.763V29.57h1.764v1.767l8.829-.007V29.563h1.763V27.8h1.764V26.035h1.764V18.981H32.942Z" fill="#878787"/>
    <path id="Path_44" data-name="Path 44" d="M29.411,33.1v1.771l-8.823.007V33.1H15.3v1.771H13.533v1.763H11.77V38.4H10.006v3.267H8.333v2.777h2.778v2.778h5.555V50H33.333V47.222h5.556V44.444h2.777V41.667H39.993V38.393H38.229V36.63H36.466V34.866H34.7V33.1Z" fill="#878787"/>
  </g>
</svg>
