<svg id="Group_58" data-name="Group 58" xmlns="http://www.w3.org/2000/svg" xmlns:xlink="http://www.w3.org/1999/xlink" width="74.977" height="75" viewBox="0 0 74.977 75">
  <defs>
    <clipPath id="clip-path">
      <rect id="Rectangle_304" data-name="Rectangle 304" width="74.977" height="75" fill="#f146c8"/>
    </clipPath>
  </defs>
  <g id="Group_57" data-name="Group 57" clip-path="url(#clip-path)">
    <path id="Path_49" data-name="Path 49" d="M28.116,475.74H3.124a3.124,3.124,0,0,1,0-6.248H28.116a3.124,3.124,0,0,1,0,6.248" transform="translate(0 -400.74)" fill="#f146c8"/>
    <path id="Path_50" data-name="Path 50" d="M21.869,390.407H3.125a3.124,3.124,0,0,1,0-6.248H21.869a3.124,3.124,0,0,1,0,6.248" transform="translate(-0.001 -327.903)" fill="#f146c8"/>
    <path id="Path_51" data-name="Path 51" d="M15.619,305.074H3.123a3.124,3.124,0,1,1,0-6.248h12.5a3.124,3.124,0,1,1,0,6.248" transform="translate(0.001 -255.066)" fill="#f146c8"/>
    <path id="Path_52" data-name="Path 52" d="M41.429,74.86a3.127,3.127,0,0,1-.278-6.248A31.24,31.24,0,1,0,7.193,34.669,3.124,3.124,0,0,1,.97,34.107a37.489,37.489,0,1,1,40.74,40.74c-.094.009-.191.012-.281.012" transform="translate(-0.817 0)" fill="#f146c8"/>
    <path id="Path_53" data-name="Path 53" d="M237.791,128.159a3.124,3.124,0,0,0-3.124,3.124V146.9a3.125,3.125,0,0,0,.915,2.209l9.372,9.372a3.124,3.124,0,0,0,4.417-4.417l-8.457-8.457V131.283a3.124,3.124,0,0,0-3.124-3.124" transform="translate(-200.303 -109.392)" fill="#f146c8"/>
  </g>
</svg>
