<svg id="Group_56" data-name="Group 56" xmlns="http://www.w3.org/2000/svg" xmlns:xlink="http://www.w3.org/1999/xlink" width="43.75" height="75" viewBox="0 0 43.75 75">
  <defs>
    <clipPath id="clip-path">
      <rect id="Rectangle_303" data-name="Rectangle 303" width="43.75" height="75" fill="#f146c8"/>
    </clipPath>
  </defs>
  <g id="Group_55" data-name="Group 55" clip-path="url(#clip-path)">
    <path id="Path_48" data-name="Path 48" d="M27.912,12.5A9.6,9.6,0,0,1,37.5,22.088a3.125,3.125,0,1,0,6.25,0V21.7A15.853,15.853,0,0,0,27.912,6.25H25V3.125a3.125,3.125,0,1,0-6.25,0V6.25H15.838a15.838,15.838,0,0,0-5,30.859L18.75,39.75V62.5H15.838A9.6,9.6,0,0,1,6.25,52.913a3.125,3.125,0,0,0-6.25,0V53.3A15.853,15.853,0,0,0,15.838,68.75H18.75v3.125a3.125,3.125,0,0,0,6.25,0V68.75h2.912a15.837,15.837,0,0,0,5-30.859L25,35.25V12.5Zm3.031,31.316A9.588,9.588,0,0,1,27.912,62.5H25V41.834ZM18.75,33.166l-5.937-1.981A9.588,9.588,0,0,1,15.838,12.5H18.75Z" fill="#f146c8"/>
  </g>
</svg>
