<svg xmlns="http://www.w3.org/2000/svg" width="34.686" height="60.001" viewBox="0 0 34.686 60.001">
  <g id="Hot_Icon" data-name="Hot Icon" transform="translate(0 0.001)">
    <path id="Path_43" data-name="Path 43" d="M6.938,42.366h3.468V38.894h3.469V28.251h3.468V24.8h3.469v3.454H17.343V42.366h3.469v3.581h3.469V35.334H20.812V31.841h3.469v3.493h3.468V49.372H24.281v3.619H17.61V49.372H14.141v3.619H10.406V49.372H6.938Zm13.874-38.9H17.343v3.47H13.875V10.4h3.468v3.818H13.875v7.015H10.406V10.7H6.938V35.334H3.469V24.8H0V52.991H3.469v3.57H6.938V60H27.749V56.495h3.469v-3.5h3.468V31.841H31.218V21.226h3.468v-7H31.218v3.525H27.749v3.489H24.281V14.223H20.812V6.938h3.469V3.468Z" fill="#f146c8"/>
    <rect id="Rectangle_239" data-name="Rectangle 239" width="3.469" height="3.469" transform="translate(24.28 -0.001)" fill="#f146c8"/>
    <rect id="Rectangle_240" data-name="Rectangle 240" width="3.468" height="3.469" transform="translate(3.469 7.232)" fill="#f146c8"/>
  </g>
</svg>
