<svg id="Group_60" data-name="Group 60" xmlns="http://www.w3.org/2000/svg" xmlns:xlink="http://www.w3.org/1999/xlink" width="75" height="75" viewBox="0 0 75 75">
  <defs>
    <clipPath id="clip-path">
      <rect id="Rectangle_305" data-name="Rectangle 305" width="75" height="75" fill="#f146c8"/>
    </clipPath>
  </defs>
  <g id="Group_59" data-name="Group 59" clip-path="url(#clip-path)">
    <path id="Path_54" data-name="Path 54" d="M21.875,0H12.5A12.5,12.5,0,0,0,0,12.5v9.375a12.5,12.5,0,0,0,12.5,12.5h9.375a12.5,12.5,0,0,0,12.5-12.5V12.5A12.5,12.5,0,0,0,21.875,0m6.25,21.875a6.25,6.25,0,0,1-6.25,6.25H12.5a6.25,6.25,0,0,1-6.25-6.25V12.5a6.25,6.25,0,0,1,6.25-6.25h9.375a6.25,6.25,0,0,1,6.25,6.25Z" transform="translate(0 -0.001)" fill="#f146c8"/>
    <path id="Path_55" data-name="Path 55" d="M299.208,0h-9.375a12.5,12.5,0,0,0-12.5,12.5v9.375a12.5,12.5,0,0,0,12.5,12.5h9.375a12.5,12.5,0,0,0,12.5-12.5V12.5A12.5,12.5,0,0,0,299.208,0m6.25,21.875a6.25,6.25,0,0,1-6.25,6.25h-9.375a6.25,6.25,0,0,1-6.25-6.25V12.5a6.25,6.25,0,0,1,6.25-6.25h9.375a6.25,6.25,0,0,1,6.25,6.25Z" transform="translate(-236.708 -0.001)" fill="#f146c8"/>
    <path id="Path_56" data-name="Path 56" d="M21.875,277.333H12.5A12.5,12.5,0,0,0,0,289.833v9.375a12.5,12.5,0,0,0,12.5,12.5h9.375a12.5,12.5,0,0,0,12.5-12.5v-9.375a12.5,12.5,0,0,0-12.5-12.5m6.25,21.875a6.25,6.25,0,0,1-6.25,6.25H12.5a6.25,6.25,0,0,1-6.25-6.25v-9.375a6.25,6.25,0,0,1,6.25-6.25h9.375a6.25,6.25,0,0,1,6.25,6.25Z" transform="translate(0 -236.708)" fill="#f146c8"/>
    <path id="Path_57" data-name="Path 57" d="M299.208,277.333h-9.375a12.5,12.5,0,0,0-12.5,12.5v9.375a12.5,12.5,0,0,0,12.5,12.5h9.375a12.5,12.5,0,0,0,12.5-12.5v-9.375a12.5,12.5,0,0,0-12.5-12.5m6.25,21.875a6.25,6.25,0,0,1-6.25,6.25h-9.375a6.25,6.25,0,0,1-6.25-6.25v-9.375a6.25,6.25,0,0,1,6.25-6.25h9.375a6.25,6.25,0,0,1,6.25,6.25Z" transform="translate(-236.708 -236.708)" fill="#f146c8"/>
  </g>
</svg>
